<svg xmlns="http://www.w3.org/2000/svg" width="99.6927" height="141.1248" viewBox="0 0 26.377 37.3393"><path d="m33.088 86.344 14.4487-4.542.1002 36.8762-14.6345-2.4551z" fill="#000000" transform="translate(-23.8733 -81.5541)"/><path d="m24.055 83.03 15.9705.0242-7.1169 2.0783-5.9826.0007-.0102 29.849 5.383.066-.001 1.2646-8.2383-.072zM48.4442 83.096l1.624.0377-.0832 33.897-1.4954.0318z" fill="#000000" transform="translate(-23.8733 -81.5541)"/><path d="M45.362 99.71c0 1.0365-.8401 1.8766-1.8765 1.8766s-1.8765-.8401-1.8765-1.8765.8401-1.8766 1.8765-1.8766 1.8765.8402 1.8765 1.8766z" fill="#000000" transform="translate(-23.8733 -81.5541)"/></svg>