<svg viewBox="0 0 64 64" fill="none" xmlns="http://www.w3.org/2000/svg">
  <path d="M20 53H44C49.4 53 53.5 52.1 56.2 51.2C57.3 50.8 57.8 49.6 57.4 48.6C56 45 52.9 42.6 49.1 41.3L40.8 38.5L32 47L23.2 38.5L14.9 41.3C11.1 42.6 8 45 6.6 48.6C6.2 49.6 6.7 50.8 7.8 51.2C10.5 52.1 14.6 53 20 53Z" stroke="currentColor" stroke-linejoin="round"/>

  <path d="M24.8 40L28.6 38.8L32 47L27.8 53" fill="var(--icon-accent, #F2B23C)"/>
  <path d="M39.2 40L35.4 38.8L32 47L36.2 53" fill="var(--icon-accent, #F2B23C)"/>

  <path d="M22 48.5L17.2 40.4" stroke="currentColor" stroke-linecap="round"/>
  <path d="M42 48.5L46.8 40.4" stroke="currentColor" stroke-linecap="round"/>

  <path d="M32 39C39.2 39 45 33.2 45 26V22.5C45 15.3 39.2 9.5 32 9.5C24.8 9.5 19 15.3 19 22.5V26C19 33.2 24.8 39 32 39Z" stroke="currentColor" stroke-linejoin="round"/>
  <path d="M20 24.5C26.8 24.4 34.5 21.7 40.2 15.3C41.5 18.6 43.2 21.6 45 24.5V21.8C45 14.8 39.2 9.5 32 9.5C24.8 9.5 19 14.8 19 21.8V24.5H20Z" fill="#A8653C" stroke="currentColor" stroke-linejoin="round"/>

  <path d="M21.8 18.5C24.2 13.4 27.7 10.8 32 10.8C36.3 10.8 39.8 13.4 42.2 18.5" stroke="currentColor" stroke-width="1.8" stroke-linecap="round" opacity="0.35"/>
  <path d="M18.8 18C18.8 12.6 22.5 9.4 27.5 8.4C29 8.1 30.5 8 32 8C33.5 8 35 8.1 36.5 8.4C41.5 9.4 45.2 12.6 45.2 18" stroke="currentColor" stroke-linecap="round"/>

  <rect x="12" y="20.5" width="6.5" height="12" rx="3.25" fill="var(--icon-accent, #F2B23C)" stroke="currentColor"/>
  <rect x="45.5" y="20.5" width="6.5" height="12" rx="3.25" fill="var(--icon-accent, #F2B23C)" stroke="currentColor"/>

  <path d="M48.7 31.5C47.9 35.7 44.4 38.8 40 38.8H37" stroke="currentColor" stroke-linecap="round"/>
  <rect x="34.5" y="36.8" width="6.8" height="4.8" rx="2.4" fill="var(--icon-accent, #F2B23C)" stroke="currentColor"/>
  <path d="M36.8 38.7H39.2" stroke="currentColor" stroke-width="1.8" stroke-linecap="round" opacity="0.35"/>

  <path d="M27 29.5C28.1 30.2 29.8 30.7 32 30.7C34.2 30.7 35.9 30.2 37 29.5" stroke="currentColor" stroke-linecap="round"/>

  <circle cx="15.2" cy="36.5" r="1.5" fill="var(--icon-accent, #F2B23C)"/>
  <circle cx="48.8" cy="36.5" r="1.5" fill="var(--icon-accent, #F2B23C)"/>
</svg>
