<svg viewBox="0 0 64 64" fill="none" xmlns="http://www.w3.org/2000/svg">
  <!-- карта -->
  <path d="M14 19H42C43.1 19 44 19.9 44 21V43C44 44.1 43.1 45 42 45H14C12.9 45 12 44.1 12 43V21C12 19.9 12.9 19 14 19Z"
        fill="white"
        stroke="currentColor"
        stroke-linejoin="round"/>

  <path d="M12 26H44"
        stroke="currentColor"
        stroke-linecap="round"/>

  <path d="M18 33H25"
        stroke="currentColor"
        stroke-width="1.8"
        stroke-linecap="round"
        opacity="0.35"/>

  <path d="M18 37H22"
        stroke="currentColor"
        stroke-width="1.8"
        stroke-linecap="round"
        opacity="0.35"/>

  <!-- 0% (сдвинуто вверх и влево) -->
  <g transform="translate(-3 0)">
    <circle cx="50" cy="21" r="8"
            fill="white"
            stroke="currentColor"/>

    <path d="M47.5 21C47.5 19.2 48.8 18 50.5 18C52.2 18 53.5 19.2 53.5 21C53.5 22.8 52.2 24 50.5 24C48.8 24 47.5 22.8 47.5 21Z"
          fill="var(--icon-accent, #f2b23c)"/>

    <path d="M49 18.5L52 23.5"
          stroke="currentColor"
          stroke-width="1.6"
          stroke-linecap="round"
          opacity="0.35"/>
  </g>

  <!-- галочка (сдвинута вверх и влево) -->
  <g transform="translate(-3 -3)">
    <path d="M44 45L48.5 49.5L57 41"
          stroke="currentColor"
          stroke-linecap="round"
          stroke-linejoin="round"/>
  </g>

  <!-- нижняя линия -->
  <path d="M47.5 49H30"
        stroke="currentColor"
        stroke-width="2"
        stroke-linecap="round"
        opacity="0.35"/>
</svg>
