<svg viewBox="0 0 64 64" fill="none" xmlns="http://www.w3.org/2000/svg">
  <path d="M12 38H8" stroke="currentColor" stroke-linecap="round"/>
  <path d="M10 31H5" stroke="currentColor" stroke-linecap="round"/>
  <path d="M12 24H8" stroke="currentColor" stroke-linecap="round"/>

  <path d="M17 19H40C41.1 19 42 19.9 42 21V46H17C15.9 46 15 45.1 15 44V21C15 19.9 15.9 19 17 19Z" stroke="currentColor" stroke-linejoin="round"/>
  <path d="M19.5 23H37.5V42H19.5V23Z" stroke="currentColor" stroke-width="1.8" opacity="0.35"/>

  <path d="M42 24H50L56 31V44C56 45.1 55.1 46 54 46H42V24Z" stroke="currentColor" stroke-linejoin="round"/>
  <path d="M46 29H50L53.5 34H46V29Z" fill="white" stroke="currentColor" stroke-linejoin="round"/>
  <path d="M47.2 30.8H50.5" stroke="var(--icon-accent, #F2B23C)" stroke-width="1.8" stroke-linecap="round" opacity="0.9"/>

  <path d="M26 31L31 36L38 29" stroke="var(--icon-accent, #F2B23C)" stroke-linecap="round" stroke-linejoin="round"/>
  <circle cx="20.5" cy="27" r="1.5" fill="var(--icon-accent, #F2B23C)"/>
  <circle cx="36.5" cy="27" r="1.5" fill="var(--icon-accent, #F2B23C)"/>

  <circle cx="24" cy="46" r="4.5" fill="white" stroke="currentColor"/>
  <circle cx="24" cy="46" r="2.1" fill="var(--icon-accent, #F2B23C)"/>
  <circle cx="49" cy="46" r="4.5" fill="white" stroke="currentColor"/>
  <circle cx="49" cy="46" r="2.1" fill="var(--icon-accent, #F2B23C)"/>
</svg>
