<svg viewBox="0 0 24 24" fill="none" xmlns="http://www.w3.org/2000/svg">
  <!-- корпус трубки -->
  <path d="M6.8 10.5C8.2 13.6 10.4 15.8 13.5 17.2L15.7 15C16 14.7 16.4 14.6 16.8 14.7C17.8 15 18.9 15.2 20 15.2C20.5 15.2 20.9 15.6 20.9 16.1V19.2C20.9 19.7 20.5 20.1 20 20.1C10.6 20.1 3.9 13.4 3.9 4C3.9 3.5 4.3 3.1 4.8 3.1H7.9C8.4 3.1 8.8 3.5 8.8 4C8.8 5.1 9 6.2 9.3 7.2C9.4 7.6 9.3 8 9 8.3L6.8 10.5Z"
        fill="white"
        stroke="currentColor"
        stroke-width="2.2"
        stroke-linejoin="round"/>

  <!-- жёлтый акцент -->
  <path d="M13.2 17.1L15.2 15.1" stroke="var(--icon-accent, #f2b23c)" stroke-width="2.2" stroke-linecap="round"/>

  <!-- маленькие декоративные волны связи -->
  <path d="M15.5 5.5C17 6 18.2 7.2 18.7 8.7" stroke="var(--icon-accent, #f2b23c)" stroke-width="1.6" stroke-linecap="round"/>
  <path d="M15.2 8C16.1 8.3 16.9 9.1 17.2 10" stroke="currentColor" stroke-width="1.4" stroke-linecap="round" opacity="0.35"/>
</svg>
